# xmcd CD database file
# Copyright (C) 1993-1998 Ti Kan
#
# Track frame offsets:
# 150
# 15360
# 29595
# 43920
# 55470
# 75760
# 96062
# 109045
# 124062
# 138857
# 152960
# 169182
# 187165
#
# Disc length: 2718 seconds
#
# Revision: 0
# Processed by: cddbd v1.4b41PL1 Copyright (c) Steve Scherf et al.
# Submitted via: inCDius 1.1
#
DISCID=a60a9c0d
DTITLE=Ted Roddy - Full Circle
DYEAR=1900
DGENRE=
TTITLE0=Sparkling City
TTITLE1=Family Portrait
TTITLE2=Give Me Back My Mind
TTITLE3=Pink Paper
TTITLE4=The Settlin' Kind
TTITLE5=Seven Days
TTITLE6=I Was the One
TTITLE7=Full Circle
TTITLE8=She's Been Gone
TTITLE9=Since I Lost You
TTITLE10=New Bluebird
TTITLE11=Face the Night
TTITLE12=Relaxin'
EXTD=
EXTT0=
EXTT1=
EXTT2=
EXTT3=
EXTT4=
EXTT5=
EXTT6=
EXTT7=
EXTT8=
EXTT9=
EXTT10=
EXTT11=
EXTT12=
PLAYORDER=
